<?xml version="1.0" encoding="UTF-8" standalone="no"?>
<!DOCTYPE svg PUBLIC "-//W3C//DTD SVG 1.1//EN"
 "http://www.w3.org/Graphics/SVG/1.1/DTD/svg11.dtd">
<!-- Generated by graphviz version 2.40.1 (0)
 -->
<!-- Title: g Pages: 1 -->
<svg width="785pt" height="319pt"
 viewBox="0.00 0.00 785.00 318.83" xmlns="http://www.w3.org/2000/svg" xmlns:xlink="http://www.w3.org/1999/xlink">
<g id="graph0" class="graph" transform="scale(1 1) rotate(0) translate(4 314.8303)">
<title>g</title>
<polygon fill="#ffffff" stroke="transparent" points="-4,4 -4,-314.8303 781,-314.8303 781,4 -4,4"/>
<!-- ddstate -->
<g id="node1" class="node">
<title>ddstate</title>
<polygon fill="#ffff00" stroke="transparent" points="8.5,-200.5 8.5,-221.5 147.5,-221.5 147.5,-200.5 8.5,-200.5"/>
<polygon fill="none" stroke="#000000" points="8.5,-200.5 8.5,-221.5 147.5,-221.5 147.5,-200.5 8.5,-200.5"/>
<text text-anchor="start" x="50.5" y="-207.3" font-family="Times,serif" font-size="14.00" fill="#000000">ddstate</text>
<polygon fill="none" stroke="#000000" points="8.5,-179.5 8.5,-200.5 147.5,-200.5 147.5,-179.5 8.5,-179.5"/>
<text text-anchor="start" x="11.5" y="-186.3" font-family="Times,serif" font-size="14.00" fill="#000000"> cumul_msg_size</text>
<polygon fill="none" stroke="#000000" points="8.5,-158.5 8.5,-179.5 147.5,-179.5 147.5,-158.5 8.5,-158.5"/>
<text text-anchor="start" x="11.5" y="-165.3" font-family="Times,serif" font-size="14.00" fill="#000000"> sessions</text>
<polygon fill="none" stroke="#000000" points="8.5,-137.5 8.5,-158.5 147.5,-158.5 147.5,-137.5 8.5,-137.5"/>
<text text-anchor="start" x="11.5" y="-144.3" font-family="Times,serif" font-size="14.00" fill="#000000"> avaible_messages</text>
<polygon fill="none" stroke="#000000" points="8.5,-116.5 8.5,-137.5 147.5,-137.5 147.5,-116.5 8.5,-116.5"/>
<text text-anchor="start" x="11.5" y="-123.3" font-family="Times,serif" font-size="14.00" fill="#000000">devF_mutex</text>
<polygon fill="none" stroke="#000000" points="8.5,-95.5 8.5,-116.5 147.5,-116.5 147.5,-95.5 8.5,-95.5"/>
<text text-anchor="start" x="11.5" y="-102.3" font-family="Times,serif" font-size="14.00" fill="#000000">readers_delayed</text>
<polygon fill="none" stroke="#000000" points="8.5,-74.5 8.5,-95.5 147.5,-95.5 147.5,-74.5 8.5,-74.5"/>
<text text-anchor="start" x="11.5" y="-81.3" font-family="Times,serif" font-size="14.00" fill="#000000">waitq_readers*</text>
</g>
<!-- msg -->
<g id="node2" class="node">
<title>msg</title>
<polygon fill="#ffff00" stroke="transparent" points="724.5,-100.5 724.5,-121.5 769.5,-121.5 769.5,-100.5 724.5,-100.5"/>
<polygon fill="none" stroke="#000000" points="724.5,-100.5 724.5,-121.5 769.5,-121.5 769.5,-100.5 724.5,-100.5"/>
<text text-anchor="start" x="731.5" y="-107.3" font-family="Times,serif" font-size="14.00" fill="#000000">msg</text>
<polygon fill="none" stroke="#000000" points="724.5,-79.5 724.5,-100.5 769.5,-100.5 769.5,-79.5 724.5,-79.5"/>
<text text-anchor="start" x="727.5" y="-86.3" font-family="Times,serif" font-size="14.00" fill="#000000">data*</text>
<polygon fill="none" stroke="#000000" points="724.5,-58.5 724.5,-79.5 769.5,-79.5 769.5,-58.5 724.5,-58.5"/>
<text text-anchor="start" x="727.5" y="-65.3" font-family="Times,serif" font-size="14.00" fill="#000000">len</text>
</g>
<!-- ddstate&#45;&gt;msg -->
<g id="edge2" class="edge">
<title>ddstate:avaible_messages&#45;&gt;msg:msg</title>
<path fill="none" stroke="#000000" d="M147.5,-147.5C210.134,-147.5 217.366,-99.5 280,-99.5 280,-99.5 280,-99.5 618,-99.5 662.0976,-99.5 674.9991,-109.7849 714.466,-111.3115"/>
<polygon fill="#000000" stroke="#000000" points="714.436,-114.8115 724.5,-111.5 714.5675,-107.8127 714.436,-114.8115"/>
<text text-anchor="middle" x="451.5" y="-103.3" font-family="Times,serif" font-size="14.00" fill="#000000">list</text>
</g>
<!-- session -->
<g id="node3" class="node">
<title>session</title>
<polygon fill="#ffff00" stroke="transparent" points="391.5,-262.5 391.5,-283.5 512.5,-283.5 512.5,-262.5 391.5,-262.5"/>
<polygon fill="none" stroke="#000000" points="391.5,-262.5 391.5,-283.5 512.5,-283.5 512.5,-262.5 391.5,-262.5"/>
<text text-anchor="start" x="425.5" y="-269.3" font-family="Times,serif" font-size="14.00" fill="#000000">session</text>
<polygon fill="none" stroke="#000000" points="391.5,-241.5 391.5,-262.5 512.5,-262.5 512.5,-241.5 391.5,-241.5"/>
<text text-anchor="start" x="394.5" y="-248.3" font-family="Times,serif" font-size="14.00" fill="#000000">timeoutRd </text>
<polygon fill="none" stroke="#000000" points="391.5,-220.5 391.5,-241.5 512.5,-241.5 512.5,-220.5 391.5,-220.5"/>
<text text-anchor="start" x="394.5" y="-227.3" font-family="Times,serif" font-size="14.00" fill="#000000">timeoutWd </text>
<polygon fill="none" stroke="#000000" points="391.5,-199.5 391.5,-220.5 512.5,-220.5 512.5,-199.5 391.5,-199.5"/>
<text text-anchor="start" x="394.5" y="-206.3" font-family="Times,serif" font-size="14.00" fill="#000000">limit_flush</text>
<polygon fill="none" stroke="#000000" points="391.5,-178.5 391.5,-199.5 512.5,-199.5 512.5,-178.5 391.5,-178.5"/>
<text text-anchor="start" x="394.5" y="-185.3" font-family="Times,serif" font-size="14.00" fill="#000000">sess_mutex</text>
<polygon fill="none" stroke="#000000" points="391.5,-157.5 391.5,-178.5 512.5,-178.5 512.5,-157.5 391.5,-157.5"/>
<text text-anchor="start" x="394.5" y="-164.3" font-family="Times,serif" font-size="14.00" fill="#000000">workq_writers</text>
<polygon fill="none" stroke="#000000" points="391.5,-136.5 391.5,-157.5 512.5,-157.5 512.5,-136.5 391.5,-136.5"/>
<text text-anchor="start" x="394.5" y="-143.3" font-family="Times,serif" font-size="14.00" fill="#000000">writers_delayed</text>
</g>
<!-- ddstate&#45;&gt;session -->
<g id="edge1" class="edge">
<title>ddstate:session&#45;&gt;session:session</title>
<path fill="none" stroke="#000000" d="M147.5,-169.5C261.9306,-169.5 273.0393,-267.4955 381.4159,-273.2374"/>
<polygon fill="#000000" stroke="#000000" points="381.4123,-276.7384 391.5,-273.5 381.5945,-269.7408 381.4123,-276.7384"/>
<text text-anchor="middle" x="159" y="-158.3" font-family="Times,serif" font-size="14.00" fill="#000000">list</text>
</g>
<!-- delayed_reader -->
<g id="node5" class="node">
<title>delayed_reader</title>
<polygon fill="#ffff00" stroke="transparent" points="222,-45.5 222,-66.5 338,-66.5 338,-45.5 222,-45.5"/>
<polygon fill="none" stroke="#000000" points="222,-45.5 222,-66.5 338,-66.5 338,-45.5 222,-45.5"/>
<text text-anchor="start" x="225" y="-52.3" font-family="Times,serif" font-size="14.00" fill="#000000">delayed_reader</text>
<polygon fill="none" stroke="#000000" points="222,-24.5 222,-45.5 338,-45.5 338,-24.5 222,-24.5"/>
<text text-anchor="start" x="225" y="-31.3" font-family="Times,serif" font-size="14.00" fill="#000000">session</text>
<polygon fill="none" stroke="#000000" points="222,-3.5 222,-24.5 338,-24.5 338,-3.5 222,-3.5"/>
<text text-anchor="start" x="225" y="-10.3" font-family="Times,serif" font-size="14.00" fill="#000000">awake_cond</text>
</g>
<!-- ddstate&#45;&gt;delayed_reader -->
<g id="edge3" class="edge">
<title>ddstate:readers_delayed&#45;&gt;delayed_reader:delayed_reader</title>
<path fill="none" stroke="#000000" d="M147.5,-105.5C166.7463,-105.5 157.2218,-81.5212 173,-70.5 188.5217,-59.658 196.5067,-57.1594 211.9395,-56.6314"/>
<polygon fill="#000000" stroke="#000000" points="212.0466,-60.1304 222,-56.5 211.9551,-53.131 212.0466,-60.1304"/>
<text text-anchor="middle" x="184.5" y="-74.3" font-family="Times,serif" font-size="14.00" fill="#000000">list</text>
</g>
<!-- delayed_write -->
<g id="node4" class="node">
<title>delayed_write</title>
<polygon fill="#ffff00" stroke="transparent" points="565,-252.5 565,-273.5 671,-273.5 671,-252.5 565,-252.5"/>
<polygon fill="none" stroke="#000000" points="565,-252.5 565,-273.5 671,-273.5 671,-252.5 565,-252.5"/>
<text text-anchor="start" x="568" y="-259.3" font-family="Times,serif" font-size="14.00" fill="#000000">delayed_write</text>
<polygon fill="none" stroke="#000000" points="565,-231.5 565,-252.5 671,-252.5 671,-231.5 565,-231.5"/>
<text text-anchor="start" x="568" y="-238.3" font-family="Times,serif" font-size="14.00" fill="#000000">minor</text>
<polygon fill="none" stroke="#000000" points="565,-210.5 565,-231.5 671,-231.5 671,-210.5 565,-210.5"/>
<text text-anchor="start" x="568" y="-217.3" font-family="Times,serif" font-size="14.00" fill="#000000">session</text>
<polygon fill="none" stroke="#000000" points="565,-189.5 565,-210.5 671,-210.5 671,-189.5 565,-189.5"/>
<text text-anchor="start" x="568" y="-196.3" font-family="Times,serif" font-size="14.00" fill="#000000">msg</text>
<polygon fill="none" stroke="#000000" points="565,-168.5 565,-189.5 671,-189.5 671,-168.5 565,-168.5"/>
<text text-anchor="start" x="568" y="-175.3" font-family="Times,serif" font-size="14.00" fill="#000000">delayed_work</text>
</g>
<!-- session&#45;&gt;delayed_write -->
<g id="edge4" class="edge">
<title>session:writers_delayed&#45;&gt;delayed_write:delayed_write</title>
<path fill="none" stroke="#000000" d="M512.5,-146.5C554.9305,-146.5 515.9266,-202.2631 538,-238.5 544.3809,-248.9752 547.1787,-257.8001 555.0783,-261.5578"/>
<polygon fill="#000000" stroke="#000000" points="554.5139,-265.0137 565,-263.5 555.8586,-258.1441 554.5139,-265.0137"/>
<text text-anchor="middle" x="524" y="-135.3" font-family="Times,serif" font-size="14.00" fill="#000000">list</text>
</g>
<!-- delayed_write&#45;&gt;ddstate -->
<g id="edge8" class="edge">
<title>delayed_write:minor&#45;&gt;ddstate:ddstate</title>
<path fill="none" stroke="#000000" d="M565,-242.5C533.759,-242.5 548.2915,-283.249 520,-296.5 464.8597,-322.3264 443.1113,-306.1999 383,-296.5 304.8832,-283.8946 287.8978,-268.7888 214,-240.5 187.4162,-230.3234 181.0715,-215.5135 157.765,-212.1822"/>
<polygon fill="#000000" stroke="#000000" points="157.7101,-208.6709 147.5,-211.5 157.2459,-215.6555 157.7101,-208.6709"/>
<text text-anchor="middle" x="155.5" y="-200.3" font-family="Times,serif" font-size="14.00" fill="#000000">1!</text>
</g>
<!-- delayed_write&#45;&gt;msg -->
<g id="edge7" class="edge">
<title>delayed_write:msg&#45;&gt;msg:msg</title>
<path fill="none" stroke="#000000" d="M671,-199.5C712.8383,-199.5 684.6479,-125.9751 714.4501,-113.338"/>
<polygon fill="#000000" stroke="#000000" points="715.2928,-116.742 724.5,-111.5 714.0335,-109.8562 715.2928,-116.742"/>
<text text-anchor="middle" x="679" y="-188.3" font-family="Times,serif" font-size="14.00" fill="#000000">1!</text>
</g>
<!-- delayed_write&#45;&gt;session -->
<g id="edge5" class="edge">
<title>delayed_write:session&#45;&gt;session:session</title>
<path fill="none" stroke="#000000" d="M565,-220.5C550.5778,-220.5 548.4081,-228.5165 538,-238.5 527.3658,-248.7003 529.3494,-263.7978 522.2257,-270.3144"/>
<polygon fill="#000000" stroke="#000000" points="520.9137,-267.0611 512.5,-273.5 523.0927,-273.7133 520.9137,-267.0611"/>
<text text-anchor="middle" x="557" y="-209.3" font-family="Times,serif" font-size="14.00" fill="#000000">1!</text>
</g>
<!-- delayed_reader&#45;&gt;session -->
<g id="edge6" class="edge">
<title>delayed_reader:session&#45;&gt;session:session</title>
<path fill="none" stroke="#000000" d="M338,-34.5C362.449,-34.5 364.185,-227.4184 384.0204,-266.6049"/>
<polygon fill="#000000" stroke="#000000" points="381.7752,-269.2954 391.5,-273.5 386.5197,-264.1487 381.7752,-269.2954"/>
<text text-anchor="middle" x="346" y="-23.3" font-family="Times,serif" font-size="14.00" fill="#000000">1!</text>
</g>
</g>
</svg>
